<svg version="1.2" xmlns="http://www.w3.org/2000/svg" viewBox="0 0 400 166" width="400" height="166">
	<title>logo1</title>
	<style>
		.s0 { fill: #1e387f } 
		.s1 { fill: #6d6765 } 
		.s2 { fill: #f0f0ef } 
		.s3 { fill: #fc9b03 } 
		.s4 { fill: #2f8ae6 } 
		.s5 { fill: #f63b5c } 
		.s6 { fill: #42c6e8 } 
	</style>
	<g id="Background">
		<path id="Path 0" class="s0" d="m0 0h400v166h-400v-83z"/>
		<path id="Path 1" class="s1" d="m239.7 112.5c0.2 1.1 0.2 3.3 0 5-0.2 1.7-0.4 0.8-0.4-2 0-2.8 0.2-4.1 0.4-3z"/>
		<path id="Path 2" class="s1" d="m164.7 113.5c0.2 1.7 0.2 4.8 0 7-0.2 2.2-0.4 0.8-0.4-3 0-3.8 0.2-5.7 0.4-4z"/>
		<path id="Path 3" class="s1" d="m158.7 113.5c0.2 1.7 0.2 4.8 0 7-0.2 2.2-0.4 0.8-0.4-3 0-3.8 0.2-5.7 0.4-4z"/>
		<path id="Path 4" class="s1" d="m227.7 111.5c0.2 2.2 0.2 6 0 8.5-0.2 2.5-0.4 0.7-0.4-4 0-4.7 0.2-6.7 0.4-4.5z"/>
		<path id="Path 5" class="s2" d="m250 107c3 0 5.4 0.6 7.3 2 2.2 1.7 2.7 2.8 2.7 6.5 0 3.7-0.5 4.9-2.8 6.6-2.2 1.7-3.8 2-8.5 1.7-4.4-0.2-6.2-0.8-7.3-2.3-0.8-1.1-1.4-3.8-1.4-6 0-2.2 0.4-4.5 0.8-5 0.4-0.6 1.6-1.6 2.7-2.2 1.1-0.7 4-1.3 6.5-1.3z"/>
		<path id="Path 6" class="s0" d="m249.8 111c0.6 0 1.9 0.2 2.7 0.5 1 0.3 1.5 1.8 1.5 4 0 2.8-0.5 3.6-2.3 4.1-1.2 0.3-3.2 0.1-4.5-0.5-1.3-0.6-2.3-2.1-2.4-3.6-0.1-1.5 0.6-2.8 1.8-3.4 1-0.6 2.5-1.1 3.1-1.1z"/>
		<path id="Path 7" class="s1" d="m233.7 111.5c0.2 2.8 0.2 6.8 0 9-0.2 2.2-0.3 0-0.3-5 0-5 0.1-6.8 0.3-4z"/>
		<path id="Path 8" class="s2" d="m230.5 107c2.5 0 2.5 0.1 2.5 8.5 0 8.4 0 8.5-2.5 8.5-2.5 0-2.5-0.1-2.5-8.5 0-8.4 0-8.5 2.5-8.5z"/>
		<path id="Path 9" class="s2" d="m203.2 106.8l7.5 0.3c6.6 0.4 7.7 0.7 9.4 2.9 1.1 1.4 2 4 1.9 5.8 0 2-0.9 4.1-2.5 5.7-2.1 2.2-3.3 2.5-16.5 2.5l0.1-8.6z"/>
		<path id="Path 10" class="s0" d="m210.7 111c0.7 0 2.2 0.5 3.3 1 1.2 0.6 2 2 2 3.5 0 1.5-0.8 2.9-2 3.5-1.1 0.5-2.9 1-4 1-1.6 0-2-0.7-2.2-3.8-0.1-2.1 0.2-4.2 0.7-4.5 0.5-0.4 1.4-0.7 2.2-0.7z"/>
		<path id="Path 11" class="s1" d="m202.7 111.5c0.2 2.8 0.2 6.8 0 9-0.2 2.2-0.3 0-0.3-5 0-5 0.1-6.8 0.3-4z"/>
		<path id="Path 12" class="s1" d="m196.7 109.5c0.2 1.7 0.2 4.6 0 6.5-0.2 1.9-0.4 0.6-0.4-3 0-3.6 0.2-5.2 0.4-3.5z"/>
		<path id="Path 13" class="s1" d="m190.7 109.5c0.2 1.7 0.2 4.6 0 6.5-0.2 1.9-0.4 0.6-0.4-3 0-3.6 0.2-5.2 0.4-3.5z"/>
		<path id="Path 14" class="s1" d="m182.7 109.5c0.2 1.7 0.2 4.6 0 6.5-0.2 1.9-0.4 0.6-0.4-3 0-3.6 0.2-5.2 0.4-3.5z"/>
		<path id="Path 15" class="s2" d="m179.5 107c2.4 0 2.5 0.3 2.5 6 0 5.4 0.2 6.1 2.3 6.6 1.2 0.3 3.2 0.3 4.5 0 2-0.5 2.2-1.2 2.2-6.6 0-5.7 0.1-6 2.5-6 2.4 0 2.5 0.2 2.5 6.5 0 5.9-0.2 6.7-2.8 8.5-1.7 1.4-4.2 2.1-7 2-3.1 0-4.8-0.6-6.7-2.5-2.1-2.1-2.5-3.4-2.5-8.5 0-5.7 0.1-6 2.5-6z"/>
		<path id="Path 16" class="s1" d="m176.7 109c0.2 1.4 0.2 4.1 0 6-0.2 1.9-0.4 0.8-0.4-2.5 0-3.3 0.2-4.9 0.4-3.5z"/>
		<path id="Path 17" class="s2" d="m162 107c8.3 0 9 0.1 9 2 0 1.6-0.7 2-7 2v6.5c0 6.3-0.1 6.5-2.5 6.5-2.4 0-2.5-0.2-2.5-13h-3c-2.3 0-3-0.4-3-2 0-1.9 0.7-2 9-2z"/>
		<path id="Path 18" class="s2" d="m139.4 107.2c5.5 0.3 6.1 0.5 6.3 2.5 0.3 2.2 0.1 2.3-5.2 1.5-4.2-0.5-5.5-0.4-5.5 0.5 0 0.8 1.4 1.3 3.7 1.3 2.1 0 4.8 0.7 6 1.5 1.4 0.9 2.3 2.5 2.3 4 0 1.5-0.9 3.1-2.3 4-1.5 1-4.1 1.4-8.2 1.3-5.1-0.3-6-0.6-6.3-2.3-0.2-1.8 0.3-2 5.2-2 3.1 0 5.6-0.5 5.6-1 0-0.6-1.9-1.2-4.2-1.5-2.4-0.3-4.9-0.9-5.6-1.3-0.6-0.4-1.2-1.8-1.3-3.1 0-1.4 0.7-3.2 1.6-4.1 1.3-1.2 3.3-1.5 7.9-1.3z"/>
		<path id="Path 19" class="s1" d="m321.7 92.3c0.4 0.5 0.6 2.5 0.5 4.5-0.2 2-0.6 3.9-0.8 4.2-0.3 0.3-0.5-1.7-0.5-4.5 0-2.7 0.4-4.6 0.8-4.2z"/>
		<path id="Path 20" class="s1" d="m152.5 92c0.3 0 0.4 2.1 0.2 9.5l-0.6-4c-0.4-2.2-0.5-4.3-0.3-4.8 0.1-0.4 0.5-0.7 0.7-0.7z"/>
		<path id="Path 21" class="s2" d="m263 91c4.3 0 5 0.3 5 2 0 1.7-0.7 2-5 2-4.3 0-5-0.3-5-2 0-1.7 0.7-2 5-2z"/>
		<path id="Path 22" class="s1" d="m194.7 90.5c0.2 1.7 0.2 4.8 0 7-0.2 2.2-0.4 0.8-0.4-3 0-3.8 0.2-5.7 0.4-4z"/>
		<path id="Path 23" class="s1" d="m176.7 90.5c0.2 1.7 0.2 4.8 0 7-0.2 2.2-0.4 0.8-0.4-3 0-3.8 0.2-5.7 0.4-4z"/>
		<path id="Path 24" class="s1" d="m170.7 90.5c0.2 1.7 0.2 4.8 0 7-0.2 2.2-0.4 0.8-0.4-3 0-3.8 0.2-5.7 0.4-4z"/>
		<path id="Path 25" class="s1" d="m158.7 89c0.2 1.9 0.2 5.5 0 8-0.2 2.5-0.4 0.9-0.4-3.5 0-4.4 0.2-6.4 0.4-4.5z"/>
		<path id="Path 26" class="s2" d="m353.5 84.3c5.2 0.2 6 0.5 6.3 2.2 0.2 1.8-0.2 2-5 1.6-3.9-0.3-5.8 0.1-7 1.3-1 0.9-1.8 2.3-1.8 3.1 0 0.8 0.7 2.2 1.5 3 0.8 0.8 3.1 1.5 5 1.5 3.1 0 3.5-0.3 3.5-2.5 0-2 0.5-2.5 2.5-2.5 2.3 0 2.5 0.3 2 8.5l-6 0.3c-3.4 0.2-7.2-0.3-8.8-1-1.6-0.8-3.2-2.6-3.7-4.3-0.7-2.1-0.7-3.9 0.2-6.1 0.7-1.7 2.2-3.6 3.3-4.2 1.1-0.6 4.7-1 8-0.9z"/>
		<path id="Path 27" class="s1" d="m329.6 84c0.2 0 0.4 2 0.4 4.5 0 2.5-0.3 4.5-0.8 4.5-0.4 0-0.5-2-0.4-4.5 0.2-2.5 0.6-4.5 0.8-4.5z"/>
		<path id="Path 28" class="s2" d="m318.5 84c1.7 0 3.6 1.4 6.3 4.5 2 2.5 4 4.6 4.5 4.5 0.4 0 0.7-2 0.7-4.5 0-4.1 0.2-4.5 2.5-4.5 2.5 0 2.5 0.1 2.5 17h-2.8c-2 0-3.8-1.3-11.1-9.5l-0.1 4.8c0 4.3-0.2 4.7-2.5 4.7-2.5 0-2.5-0.1-2.5-8.5 0-8.4 0-8.5 2.5-8.5z"/>
		<path id="Path 29" class="s1" d="m315.7 88.5c0.2 2.8 0.2 6.8 0 9-0.2 2.2-0.3 0-0.3-5 0-5 0.1-6.8 0.3-4z"/>
		<path id="Path 30" class="s1" d="m309.7 88.5c0.2 2.8 0.2 6.8 0 9-0.2 2.2-0.3 0-0.3-5 0-5 0.1-6.8 0.3-4z"/>
		<path id="Path 31" class="s2" d="m306.5 84c2.5 0 2.5 0.1 2.5 8.5 0 8.4 0 8.5-2.5 8.5-2.5 0-2.5-0.1-2.5-8.5 0-8.4 0-8.5 2.5-8.5z"/>
		<path id="Path 32" class="s1" d="m303.7 87.5c0.2 2.2 0.2 6 0 8.5-0.2 2.5-0.4 0.7-0.4-4 0-4.7 0.2-6.7 0.4-4.5z"/>
		<path id="Path 33" class="s2" d="m275 84c1.5 0 2.3 1.1 3.3 4.5 0.6 2.5 1.5 4.5 2 4.5 0.4 0 1.3-1.9 2-4.3 1-2.9 1.9-4.2 3.2-4.2 1.3 0 2.3 1.3 3.3 4.5 0.8 2.6 1.7 4.1 2.2 3.5 0.4-0.5 1.3-2.7 1.9-4.8 0.8-2.7 1.7-3.7 3.1-3.7 1.1 0 2 0.3 2 0.8 0 0.4-1.2 4.2-2.7 8.5-2.3 6.4-3.1 7.7-4.7 7.5-1.3-0.2-2.4-1.8-3.4-4.8-0.8-2.6-1.7-4.1-2.2-3.5-0.4 0.5-1.3 2.7-1.9 4.8-0.7 2.4-1.7 3.7-2.8 3.7-1.3 0-2.6-2-4.5-7.2-1.5-4-2.8-7.9-2.8-8.6 0-0.6 0.9-1.2 2-1.2z"/>
		<path id="Path 34" class="s2" d="m236 84h8.5c7.8 0 8.5 0.2 8.5 2 0 1.8-0.7 2-6 2-3.3 0-6 0.4-6 1 0 0.5 2 1 4.5 1 3.8 0 4.5 0.3 4.5 2 0 1.7-0.7 2-4.5 2-3.3 0-4.5 0.4-4.5 1.5 0 1.2 1.3 1.5 6 1.5 5.3 0 6 0.2 6 2 0 1.8-0.7 2-17 2v-8.5z"/>
		<path id="Path 35" class="s1" d="m235.7 88.5c0.2 2.8 0.2 6.8 0 9-0.2 2.2-0.3 0-0.3-5 0-5 0.1-6.8 0.3-4z"/>
		<path id="Path 36" class="s1" d="m217.7 86.5c0.2 1.7 0.2 4.8 0 7-0.2 2.2-0.4 0.8-0.4-3 0-3.8 0.2-5.7 0.4-4z"/>
		<path id="Path 37" class="s2" d="m214.5 84c2.4 0 2.5 0.2 2.5 13h6c5.3 0 6 0.2 6 2 0 1.8-0.7 2-17 2v-8.5c0-8.4 0-8.5 2.5-8.5z"/>
		<path id="Path 38" class="s2" d="m197 84c8.3 0 9 0.1 9 2 0 1.6-0.7 2-6 2v6.5c0 6.3-0.1 6.5-2.5 6.5-2.4 0-2.5-0.2-2.5-13h-3.5c-2.8 0-3.5-0.4-3.5-2 0-1.9 0.7-2 9-2z"/>
		<path id="Path 39" class="s2" d="m173 84c8.3 0 9 0.1 9 2 0 1.6-0.7 2-6 2v6.5c0 6.3-0.1 6.5-2.5 6.5-2.4 0-2.5-0.2-2.5-13h-3.5c-2.8 0-3.5-0.4-3.5-2 0-1.9 0.7-2 9-2z"/>
		<path id="Path 40" class="s2" d="m155.5 84c2.5 0 2.5 0.1 2.5 8.5 0 8.4 0 8.5-2.5 8.5-2.5 0-2.5-0.1-2.5-8.5 0-8.4 0-8.5 2.5-8.5z"/>
		<path id="Path 41" class="s2" d="m132.5 84c2.4 0 2.5 0.2 2.5 13h6c5.3 0 6 0.2 6 2 0 1.8-0.7 2-17 2v-8.5c0-8.4 0-8.5 2.5-8.5z"/>
		<path id="Path 42" class="s3" d="m85.7 54.5c0.2 0.3-0.5 2-1.4 3.8-0.9 1.8-1.9 6.6-2.1 11.2-0.4 5.9 0 9.5 1.2 13.5 1 3 3.4 7.9 9.1 16.1l-7 7c-3.8 3.9-8.3 7.8-10 8.6-1.7 0.9-5.3 1.6-8 1.6-2.8 0-6.4-0.7-8-1.6-1.7-0.8-4-2.6-5.1-3.9-1.2-1.2-2.9-3.8-3.8-5.6-0.9-1.7-1.6-4.8-1.6-6.7 0-1.9 0.7-5.2 1.5-7.3 1-2.3 7.7-9.9 18.2-20.4 9.2-9.2 16.8-16.5 17-16.3z"/>
		<path id="Path 43" class="s4" d="m148.4 47.5c1 1.1 2.9 3.8 4.2 6 1.3 2.2 3 7.1 3.9 11 1.1 5.4 1.2 8.5 0.5 13.3-0.7 4.4-1.4 6.2-2.5 6.2-1 0-1.5 1.1-1.5 3.5 0 2.1-0.9 4.8-2.4 6.7-2.4 3.2-2.7 3.3-15.6 2.8v-6.5c0-6.3-0.1-6.5-2.5-6.5-2.5 0-2.5 0.1-2.5 17h14.5l-4.5 3c-2.5 1.6-7.4 3.7-11 4.6-4.5 1.1-8.4 1.4-12.8 1-3.4-0.3-8.1-1.4-10.5-2.3-2.3-0.9-6.2-3-13.2-7.5l27-27.2c26.7-26.9 27-27.1 28.9-25.1z"/>
		<path id="Path 44" class="s5" d="m123 34.7c3 0.3 8 1.5 11 2.6 3 1.1 7.1 3.5 12.5 8.6l-53.5 53.6-2.5-3c-1.4-1.7-3.7-5.5-5.2-8.5-2.5-5-2.8-6.5-2.8-16 0-10.1 0.1-10.7 3.5-16.9 1.9-3.5 5.6-8.3 8.1-10.5 2.5-2.3 6.8-5.2 9.5-6.5 2.7-1.3 6.9-2.7 9.4-3.2 2.5-0.4 7-0.5 10-0.2z"/>
		<path id="Path 45" class="s6" d="m171.5 30.5c2.9 0.3 6.5 1.5 8.8 3 2.1 1.4 4.5 4.3 5.7 6.8 1.1 2.3 2 6.1 2 8.4 0 2.4-0.7 5.8-1.6 7.5-0.9 1.8-7.6 9.2-14.8 16.5-11 11.1-13.3 12.9-14.3 11.7-1-1.1-1.1-2.7-0.3-6.9 0.7-3.8 0.7-7.3-0.1-11.3-0.6-3.1-1.6-7-2.3-8.7-0.7-1.6-2.6-5-7.5-12l6.2-6.2c3.4-3.4 7.8-6.9 9.7-7.8 2.4-1 5.1-1.4 8.5-1z"/>
	</g>
</svg>