<?xml version="1.0" ?><svg id="Capa_1" style="enable-background:new 0 0 512 512;" version="1.1" viewBox="0 0 512 512" xml:space="preserve" xmlns="http://www.w3.org/2000/svg" xmlns:xlink="http://www.w3.org/1999/xlink"><path d="M493.21,450.79c11.72,11.71,11.72,30.71,0,42.42c-5.85,5.86-13.53,8.79-21.21,8.79  s-15.36-2.93-21.21-8.79L340.63,384.17l42.24-42.25l0.23-0.23L493.21,450.79z" style="fill:#57555C;"/><path d="M383.1,341.68v0.01l-0.23,0.23l-42.24,42.25L294,338l-0.5-0.72c16.17-11.38,30.38-25.36,42.03-41.33  L337,296L383.1,341.68z" style="fill:#FEB756;"/><path d="M370,190c0,39.6-12.8,76.22-34.47,105.95c-11.65,15.97-25.86,29.95-42.03,41.33  C264.22,357.89,228.52,370,190,370c-99.41,0-180-80.59-180-180S90.59,10,190,10S370,90.59,370,190z" style="fill:#FD3A4E;"/><path d="M329.976,187.375c-1.374-74.64-61.879-135.518-136.51-137.333C114.775,48.128,50,111.609,50,190  c0,77.2,62.81,140,140,140C268.149,330,331.417,265.686,329.976,187.375z" style="fill:#C0E3F0;"/><path d="M90,100c5.52,0,10-4.48,10-10s-4.48-10-10-10s-10,4.48-10,10S84.48,100,90,100z"/><path d="M170,240c-5.514,0-10-4.486-10-10c0-5.522-4.477-10-10-10s-10,4.478-10,10c0,16.542,13.458,30,30,30h10v10  c0,5.522,4.477,10,10,10s10-4.478,10-10v-10h10c16.542,0,30-13.458,30-30v-20c0-16.542-13.458-30-30-30h-10v-40h10  c5.514,0,10,4.486,10,10c0,5.522,4.477,10,10,10s10-4.478,10-10c0-16.542-13.458-30-30-30h-10v-10c0-5.522-4.477-10-10-10  s-10,4.478-10,10v10h-10c-16.542,0-30,13.458-30,30v20c0,16.542,13.458,30,30,30h10v40H170z M170,180c-5.514,0-10-4.486-10-10v-20  c0-5.514,4.486-10,10-10h10v40H170z M200,200h10c5.514,0,10,4.486,10,10v20c0,5.514-4.486,10-10,10h-10V200z"/><path d="M340,190c0-82.71-67.29-150-150-150c-23.691,0-46.388,5.398-67.459,16.044c-4.93,2.491-6.907,8.506-4.416,13.436  c2.49,4.929,8.507,6.907,13.435,4.416C149.809,64.675,169.471,60,190,60c71.682,0,130,58.317,130,130s-58.318,130-130,130  S60,261.683,60,190c0-20.759,5.036-41.415,14.562-59.736c2.548-4.899,0.642-10.938-4.259-13.485  c-4.899-2.548-10.938-0.641-13.485,4.259C45.815,142.195,40,166.042,40,190c0,82.71,67.29,150,150,150S340,272.71,340,190z"/><path d="M500.249,443.687l-109.838-108.83c-0.088-0.095-0.179-0.188-0.272-0.28l-41.049-40.675C369.338,262.99,380,227.273,380,190  C380,85.233,294.766,0,190,0S0,85.233,0,190s85.234,190,190,190c36.498,0,71.626-10.272,102.135-29.773l39.88,39.487  c0.385,0.604,0.835,1.18,1.363,1.708c0.55,0.55,1.152,1.014,1.784,1.409l108.55,107.445C451.261,507.836,461.307,512,472,512  s20.739-4.164,28.278-11.716C507.837,492.731,512,482.687,512,472S507.837,451.269,500.249,443.687z M340.594,370.062  l-31.959-31.644c10.471-8.373,20.003-17.815,28.499-28.207l31.797,31.507L340.594,370.062z M20,190C20,96.262,96.262,20,190,20  s170,76.262,170,170c0,36.244-11.256,70.844-32.549,100.057c-11.044,15.139-24.403,28.275-39.707,39.046l0,0  C259.027,349.316,225.228,360,190,360C96.262,360,20,283.738,20,190z M486.133,486.146C482.364,489.921,477.345,492,472,492  s-10.364-2.079-14.175-5.897l-103.017-101.97l28.325-28.332l103.009,102.063C489.919,461.639,492,466.659,492,472  S489.919,482.361,486.133,486.146z"/><g/><g/><g/><g/><g/><g/><g/><g/><g/><g/><g/><g/><g/><g/><g/></svg>